<svg width="32" height="35" viewBox="0 0 32 35" fill="none" xmlns="http://www.w3.org/2000/svg">
<path d="M27 5.9474V27C27 27.5584 26.7893 28.0939 26.4142 28.4887C26.0391 28.8835 25.5304 29.1053 25 29.1053H20.5C19.9696 29.1053 19.4609 28.8835 19.0858 28.4887C18.7107 28.0939 18.5 27.5584 18.5 27V5.9474C18.5 5.38905 18.7107 4.85356 19.0858 4.45875C19.4609 4.06394 19.9696 3.84213 20.5 3.84213H25C25.5304 3.84213 26.0391 4.06394 26.4142 4.45875C26.7893 4.85356 27 5.38905 27 5.9474ZM11.5 3.84213H7C6.46957 3.84213 5.96086 4.06394 5.58579 4.45875C5.21071 4.85356 5 5.38905 5 5.9474V27C5 27.5584 5.21071 28.0939 5.58579 28.4887C5.96086 28.8835 6.46957 29.1053 7 29.1053H11.5C12.0304 29.1053 12.5391 28.8835 12.9142 28.4887C13.2893 28.0939 13.5 27.5584 13.5 27V5.9474C13.5 5.38905 13.2893 4.85356 12.9142 4.45875C12.5391 4.06394 12.0304 3.84213 11.5 3.84213Z" fill="#397097"/>
</svg>
