<svg width="22" height="29" viewBox="0 0 22 29" fill="none" xmlns="http://www.w3.org/2000/svg">
<path d="M21.0375 12.671L3.03751 1.10524C2.73768 0.905239 2.39141 0.795783 2.03651 0.788821C1.68161 0.78186 1.33171 0.877662 1.02501 1.06577C0.713773 1.24551 0.454317 1.51024 0.27394 1.8321C0.0935623 2.15395 -0.00106682 2.52103 9.07295e-06 2.89472V26.0526C-0.00106682 26.4263 0.0935623 26.7934 0.27394 27.1152C0.454317 27.4371 0.713773 27.7018 1.02501 27.8816C1.33171 28.0697 1.68161 28.1655 2.03651 28.1585C2.39141 28.1515 2.73768 28.0421 3.03751 27.8421L21.0375 16.2763C21.3325 16.0889 21.5766 15.8245 21.746 15.5087C21.9154 15.1929 22.0044 14.8364 22.0044 14.4737C22.0044 14.111 21.9154 13.7544 21.746 13.4386C21.5766 13.1228 21.3325 12.8584 21.0375 12.671Z" fill="#BA4949"/>
</svg>
